<?xml version="1.0" encoding="utf-8"?>
<svg width="62px" height="62px" viewBox="0 0 62 62" version="1.1" xmlns:xlink="http://www.w3.org/1999/xlink" xmlns="http://www.w3.org/2000/svg">
  <defs>
    <path d="M0 0L60 0L60 60L0 60L0 0Z" id="path_1" />
    <clipPath id="mask_1">
      <use xlink:href="#path_1" />
    </clipPath>
  </defs>
  <g id="Instagram-icon" transform="translate(1 1)">
    <path d="M0 0L60 0L60 60L0 60L0 0Z" id="Background" fill="none" fill-rule="evenodd" stroke="none" />
    <g clip-path="url(#mask_1)">
      <path d="M52.0875 16.85C51.5875 17.175 50.875 17.475 50.575 17.8125C50.4625 17.925 50.4 18.05 50.425 18.175L50.425 19.4625L50.05 20.725L49.675 21.975L49.2625 23.35L48.4125 26.1625L47.5875 28.9375L46.9625 31.025C46.9625 31.35 46.95 31.675 46.925 31.9875C46.8375 33.1875 46.5875 34.3375 46.1875 35.4125C45.95 36.075 45.6625 36.7125 45.3125 37.3125C45.1875 37.55 45.0375 37.7875 44.8875 38.0125C44.3875 38.8 43.7875 39.525 43.125 40.1625C42.6125 40.675 42.05 41.15 41.4375 41.55C41.4375 41.55 41.4375 41.55 41.425 41.55C41.325 41.6375 41.2125 41.7125 41.0875 41.775C40.7 42.0375 40.2875 42.2625 39.8625 42.4625C39.575 42.6125 39.2875 42.7375 38.9875 42.85C38.925 42.8875 38.85 42.9125 38.7875 42.9375C38.075 43.275 37.25 43.5 36.425 43.6125C36.375 43.625 36.3375 43.625 36.2875 43.6375C35.7875 43.725 35.3 43.8 34.8 43.8375C34.575 43.8625 34.3375 43.875 34.1125 43.875L33.225 43.825L28.95 43.6C28.95 43.5875 28.9375 43.6 28.9375 43.6L26.7875 43.4875C26.625 43.4875 26.45 43.4875 26.2875 43.475C25.6125 43.45 24.9625 43.375 24.3125 43.2375C24.3 43.2375 24.3 43.2375 24.3 43.2375C23.1125 43.0125 21.975 42.6125 20.9125 42.075C20.325 41.775 19.75 41.4375 19.2125 41.05C18.9875 40.8875 18.775 40.7125 18.5625 40.525C17.9625 40.025 17.425 39.4875 16.925 38.9375C16.85 38.8625 16.7875 38.7875 16.725 38.7125C16.65 38.6375 16.575 38.55 16.5125 38.475C16.0375 37.875 15.6375 37.2625 15.3125 36.6125C15.0125 36.0375 14.775 35.425 14.5875 34.75C14.5125 34.5125 14.45 34.2875 14.4 34.0375C14.3875 34.025 14.375 34 14.375 33.975C14.25 33.4625 14.1375 32.925 14.075 32.3875C14 31.975 13.9625 31.5625 13.9625 31.1375C13.9375 30.975 13.9375 30.8 13.9375 30.6375L16.325 26.95L18.6625 23.35L19.725 21.7125L20.6875 20.2375L21.0125 19.725L21.0125 18.4375C21.0375 18.15 21.05 17.85 21.0375 17.575C21.025 16.7 20.85 15.85 20.5625 15.0375C20.2875 14.175 19.9 13.3625 19.5 12.6125C19.025 11.75 18.525 10.975 18.1125 10.275C17.5 9.25 17.075 8.4125 17.1875 7.825C18.0875 7.6125 19.0375 7.5 20 7.5L40 7.5C45.225 7.5 49.725 10.75 51.5875 15.325C51.7875 15.8125 51.9625 16.325 52.0875 16.85L52.0875 16.85Z" id="Shape" fill="#304FFE" fill-rule="evenodd" stroke="none" />
      <path d="M52.5 20L52.5 20.3375L50.775 21.3375L49.675 21.975L48.4625 22.675L46.0375 24.0875L43.6625 25.4625L41.2375 26.8625L40.275 27.425C40.275 28.025 40.125 28.575 39.85 29.075C39.4625 29.8 38.8125 30.4 37.9875 30.9125C37.15 31.425 36.125 31.8375 34.975 32.1375C34.975 32.1375 34.975 32.125 34.9625 32.1375C30.5125 33.2875 24.4375 32.7625 21.4875 30.5625C20.6625 29.95 20.0875 29.2 19.8375 28.3375C19.7625 28.05 19.725 27.7375 19.725 27.425L19.725 18.4375C19.7375 18.25 19.6125 18.0625 19.3875 17.875C18.7125 17.3375 17.125 16.825 15.35 16.3125C13.9625 15.925 12.475 15.5375 11.225 15.1625C10.2375 14.8625 9.40002 14.5625 8.90002 14.275C9.12502 13.8375 9.38752 13.4 9.66252 12.9875C11.4125 10.425 14.0875 8.5375 17.1875 7.825C18.0875 7.6125 19.0375 7.5 20 7.5L33.5 7.5C40.2125 8.675 46.4 11.4125 51.5875 15.325C51.7875 15.8125 51.9625 16.325 52.0875 16.85C52.3125 17.675 52.45 18.525 52.4875 19.4125C52.5 19.6 52.5 19.8 52.5 20L52.5 20Z" id="Shape" fill="#4928F4" fill-rule="evenodd" stroke="none" />
      <path d="M52.5 20.0002L52.5 25.5127L52.225 26.3627L51.2875 29.2752L50.3125 32.2752L49.8 33.8752L49.325 35.3627L48.8625 36.7752L48.4125 38.1752L48.175 38.9127L47.8625 39.8877C47.8625 40.8377 47.8375 41.6752 47.775 42.3877C47.7625 42.4627 47.75 42.5377 47.75 42.6127C47.675 43.2752 47.575 43.8377 47.4125 44.3127C47.4 44.3877 47.375 44.4627 47.35 44.5252C47.025 45.4252 46.5375 46.0002 45.8125 46.3752C45.6375 46.4752 45.4375 46.5502 45.225 46.6252C44.5625 46.8502 43.725 46.9627 42.7 47.0252C41.95 47.0752 41.0875 47.0877 40.1125 47.0877L39.25 47.0877L37.7625 47.0252L37.5 47.0127L34.7875 46.9002L32.0375 46.7877L22.975 46.4127L20.625 46.3127L20.3 46.3127C19.325 46.3002 18.4875 46.2377 17.7625 46.1377C16.7125 45.9752 15.9 45.7002 15.2875 45.2877C14.4125 44.7252 13.9 43.9002 13.6 42.7502C13.525 42.4752 13.4625 42.1877 13.425 41.8752C13.3 41.1502 13.2375 40.3127 13.2 39.3752C13.2 39.1877 13.2 39.0002 13.1875 38.8002C13.175 38.7877 13.1875 38.7877 13.1875 38.7877L13.1875 38.0627C13.175 37.7002 13.175 37.3252 13.175 36.9377L13.2375 34.9252L13.275 33.4877L13.325 31.8127L13.325 31.5752L13.4125 28.5002L13.5 25.4252L13.5875 22.5377L13.6625 19.7002L13.6875 18.9502C13.6875 18.5627 12.375 18.3377 10.9125 18.1502C9.75002 18.0002 8.47502 17.8627 7.71252 17.6877C7.77502 17.4002 7.83752 17.1127 7.91252 16.8377C8.13752 15.9377 8.47502 15.0877 8.90002 14.2752C9.12502 13.8377 9.38752 13.4002 9.66252 12.9877C12.3625 11.8002 15.175 10.8752 18.1125 10.2752C20.6875 9.7377 23.375 9.4502 26.15 9.4502C35.35 9.4502 43.85 12.5627 50.575 17.8127C51.225 18.3127 51.8625 18.8502 52.4875 19.4127C52.5 19.6002 52.5 19.8002 52.5 20.0002L52.5 20.0002Z" id="Shape" fill="#6200EA" fill-rule="evenodd" stroke="none" />
      <path d="M52.5 22.9622L52.5 28.6372L51.8125 29.9622L50.5 32.5247L49.8 33.8747L49.1625 35.1122L48.8875 35.6497C48.8875 36.0372 48.8875 36.4122 48.8625 36.7747C48.8625 37.3122 48.8375 37.8247 48.8 38.2997C48.75 38.8622 48.675 39.3747 48.6 39.8497C48.4125 40.8372 48.15 41.6872 47.775 42.3872C47.725 42.4747 47.675 42.5622 47.625 42.6372C47.4875 42.8622 47.325 43.0747 47.15 43.2747C46.925 43.5497 46.675 43.7872 46.3875 43.9872C45.9625 44.3122 45.4625 44.5747 44.8875 44.7747C44.175 45.0372 43.35 45.2122 42.375 45.3122C41.7375 45.3747 41.0375 45.4122 40.275 45.4122L39.75 45.4372L37.15 45.5872L37.1375 45.5872L34.375 45.7497L31.5625 45.9122L27.6875 46.1372L22.975 46.4122L22.2875 46.4497C21.65 46.4497 21.05 46.4122 20.475 46.3372C20.4125 46.3247 20.3625 46.3122 20.3 46.3122C19.45 46.1747 18.675 45.9497 17.975 45.6372C17.125 45.2622 16.3875 44.7622 15.7625 44.1622C15.2125 43.6247 14.7375 43.0122 14.35 42.3247C14.2625 42.1622 14.175 42.0122 14.1 41.8372C13.725 41.0997 13.425 40.2747 13.2 39.3747C13.1625 39.2247 13.125 39.0622 13.1 38.8997C13.025 38.6122 12.9625 38.3122 12.925 37.9997C12.7875 37.1997 12.7125 36.3497 12.675 35.4622L12.675 35.4497C12.6625 35.0872 12.65 34.7372 12.65 34.3622L12.0375 32.8997L11.95 32.6747L11.875 32.4872L10.9375 30.2497L10.7875 29.8872L9.8875 27.7247L8.8875 25.3122C8.8875 25.3122 8.8875 25.3122 8.875 25.3122L7.8625 22.8747L7.5 21.9872L7.5 19.9997C7.5 19.2122 7.575 18.4372 7.7125 17.6872C7.775 17.3997 7.8375 17.1122 7.9125 16.8372C8.975 16.2247 10.0875 15.6622 11.225 15.1622C13.825 13.9997 16.6125 13.1372 19.5 12.6122C21.65 12.2247 23.8875 12.0122 26.15 12.0122C35.2875 12.0122 43.575 15.3247 50.05 20.7247C50.3 20.9247 50.5375 21.1247 50.775 21.3372C51.3625 21.8497 51.9375 22.3872 52.5 22.9622L52.5 22.9622Z" id="Shape" fill="#673AB7" fill-rule="evenodd" stroke="none" />
      <path d="M52.5 26.6874L52.5 33.1124L51.7875 34.5999L50.4375 37.4124L50.425 37.4499C50.425 37.9874 50.4 38.4749 50.3625 38.9124C50.2375 40.3499 49.8875 41.2624 49.3125 41.8249C48.9 42.2499 48.3875 42.4874 47.75 42.6124C47.7125 42.6249 47.6625 42.6249 47.625 42.6374C47.425 42.6749 47.2125 42.6999 46.9875 42.6999C46.2125 42.7749 45.3 42.7249 44.25 42.6499C44.1375 42.6499 44.0125 42.6374 43.8875 42.6249C43.125 42.5749 42.3125 42.5249 41.4125 42.4874C40.925 42.4749 40.4125 42.4624 39.8875 42.4624L39.8625 42.4624L38.6 42.5624L38.5875 42.5624L35.75 42.7624L32.5125 43.0124L32.0375 43.0499L28.25 43.3249L26.2875 43.4749L24.35 43.6124C24.0125 43.6124 23.6875 43.6124 23.3625 43.5999C23.3625 43.5999 23.35 43.5874 23.35 43.5999C21.9375 43.5749 20.675 43.4874 19.55 43.2749C18.5125 43.0999 17.6 42.8249 16.825 42.4124C16.025 42.0249 15.3625 41.4749 14.825 40.7749C14.3125 40.0874 13.9375 39.2249 13.7 38.1874C13.7 38.1749 13.7 38.1749 13.7 38.1749C13.525 37.3374 13.425 36.3624 13.425 35.2624L13.2375 34.9249L12.125 32.9374L11.9625 32.6624L11.875 32.4874L10.7125 30.4249L10.1375 29.3874L9.4125 28.0999L8.1625 25.8624L7.5 24.6874L7.5 20.0874C8.6 19.3624 9.7375 18.7249 10.9125 18.1499C12.3375 17.4249 13.8125 16.8124 15.35 16.3124C17.025 15.7624 18.775 15.3249 20.5625 15.0374C22.375 14.7374 24.2375 14.5874 26.15 14.5874C34.65 14.5874 42.45 17.6249 48.4625 22.6749C48.7375 22.8874 49 23.1249 49.2625 23.3499C50.3125 24.2874 51.3125 25.2999 52.225 26.3624C52.325 26.4749 52.425 26.5749 52.5 26.6874L52.5 26.6874Z" id="Shape" fill="#8E24AA" fill-rule="evenodd" stroke="none" />
      <path d="M52.5 30.8879L52.5 39.9254C52.2 39.7504 51.7875 39.5379 51.275 39.3129C51 39.1754 50.6875 39.0379 50.3625 38.9129C49.8875 38.7004 49.375 38.5004 48.8 38.3004C48.675 38.2504 48.55 38.2129 48.4125 38.1754C48.1875 38.0879 47.95 38.0129 47.7125 37.9379C46.975 37.7129 46.1625 37.5004 45.3125 37.3129C44.9875 37.2504 44.65 37.1879 44.3125 37.1379C43.225 36.9504 42.0625 36.8379 40.85 36.8254C40.75 36.8129 40.6375 36.8129 40.5375 36.8129L37.325 36.8379L32.95 36.8629L32.9375 36.8629L23.575 36.9379C20.6 36.9379 18.775 37.6504 17.675 37.9379C17.675 37.9379 17.6625 37.9379 17.6625 37.9504C16.5 38.2504 16.1375 38.0629 16.0375 36.0254C16.0125 35.4629 16 34.7379 16 33.8504L15.3 33.3129L14.075 32.3879L13.325 31.8129L13.175 31.7004L11.1 30.1254L10.7875 29.8879L10.1375 29.3879L8.9375 28.4879L7.5 27.3879L7.5 23.1379C7.625 23.0379 7.7375 22.9504 7.8625 22.8754C9.675 21.6254 11.6125 20.5629 13.6625 19.7004C15.4875 18.9254 17.4125 18.3129 19.3875 17.8754C19.925 17.7629 20.475 17.6504 21.0375 17.5754C22.7 17.2879 24.4125 17.1504 26.15 17.1504C33.6625 17.1504 40.5625 19.7629 46.0375 24.0879C46.8625 24.7379 47.6625 25.4254 48.4125 26.1629C49.4375 27.1379 50.4 28.1754 51.2875 29.2754C51.4625 29.5004 51.6375 29.7254 51.8125 29.9629C52.05 30.2629 52.275 30.5754 52.5 30.8879L52.5 30.8879Z" id="Shape" fill="#C2185B" fill-rule="evenodd" stroke="none" />
      <path d="M52.5 35.8996L52.5 39.9996C52.5 40.8121 52.425 41.6121 52.275 42.3871C52.05 43.5371 51.6625 44.6371 51.1375 45.6621C50.8625 45.7246 50.55 45.7246 50.2 45.6746C49.4125 45.5371 48.4875 45.1246 47.4875 44.5871C47.4375 44.5746 47.3875 44.5496 47.35 44.5246C47.0375 44.3621 46.7125 44.1871 46.3875 43.9871C45.725 43.6246 45.025 43.2246 44.325 42.8496C44.175 42.7746 44.025 42.6996 43.8875 42.6246C43.0875 42.2121 42.2625 41.8371 41.4375 41.5496C41.4375 41.5496 41.4375 41.5496 41.425 41.5496C41.25 41.4871 41.0625 41.4246 40.875 41.3746C40.1625 41.1746 39.4375 41.0496 38.7375 41.0496L37.3625 40.6496L31.275 38.8871C31.275 38.8871 31.275 38.8871 31.2625 38.8871L27.525 37.7996L27.5125 37.7996L25.8875 37.3246C21.1875 37.3246 18.3 39.3246 16.9 38.5621C16.35 38.2746 16.025 37.5496 15.9125 36.1246C15.875 35.7246 15.8625 35.2746 15.8625 34.7496L14.4 34.0371L14.3375 34.0121L14.325 34.0121L13.275 33.4871L12.125 32.9371L12.0375 32.8996L11.825 32.7871L9.375 31.5996L7.5 30.6871L7.5 26.3996C7.7125 26.2121 7.9375 26.0371 8.1625 25.8621C8.4 25.6746 8.6375 25.4996 8.875 25.3121C8.8875 25.3121 8.8875 25.3121 8.8875 25.3121C10.3625 24.2496 11.925 23.3121 13.5875 22.5371C15.525 21.6121 17.5875 20.8996 19.725 20.4371C20.0375 20.3621 20.3625 20.2871 20.6875 20.2371C22.4625 19.8996 24.2875 19.7246 26.15 19.7246C32.7375 19.7246 38.7875 21.8621 43.6625 25.4621C45.075 26.5121 46.3875 27.6746 47.5875 28.9371C48.575 29.9746 49.4875 31.0996 50.3125 32.2746C50.375 32.3621 50.4375 32.4496 50.5 32.5246C50.9625 33.1996 51.3875 33.8871 51.7875 34.5996C52.05 35.0246 52.275 35.4621 52.5 35.8996L52.5 35.8996Z" id="Shape" fill="#D81B60" fill-rule="evenodd" stroke="none" />
      <path d="M52.275 42.3876C52.05 43.5376 51.6625 44.6376 51.1375 45.6626C50.9 46.1251 50.6375 46.5626 50.35 46.9876C50.175 47.2501 49.9875 47.5001 49.8 47.7376C49.35 47.5626 48.6875 47.3126 47.875 47.0376C47.875 47.0376 47.875 47.0376 47.875 47.0251C47.2625 46.8126 46.5625 46.5876 45.8125 46.3751C45.6 46.3126 45.3875 46.2501 45.1625 46.1876C44.275 45.9501 43.35 45.7376 42.45 45.6126C41.7 45.4876 40.9625 45.4126 40.275 45.4126L39.7 45.2501L39.6875 45.2501L36.6625 44.3751L34.8 43.8376L32.725 43.2376L32.7125 43.2376L32.0375 43.0501L23.875 40.7001L21.525 40.0251L19.775 39.6126L16.925 38.9376L16.575 38.8501C16.575 38.8501 16.575 38.8501 16.5625 38.8501L13.7 38.1876C13.7 38.1751 13.7 38.1751 13.7 38.1751L13.1875 38.0626L12.925 38.0001L10.8375 37.5126L10.6 37.4501L8.825 35.9876L7.5 34.8751L7.5 29.7751C7.9625 29.3251 8.4375 28.9001 8.9375 28.4876C9.0875 28.3501 9.25 28.2251 9.4125 28.1001C9.5625 27.9751 9.725 27.8501 9.8875 27.7251C11.025 26.8626 12.225 26.0876 13.5 25.4251C15.125 24.5501 16.85 23.8501 18.6625 23.3501C19.0125 23.2376 19.3625 23.1376 19.725 23.0626C21.775 22.5501 23.925 22.2876 26.15 22.2876C31.7375 22.2876 36.9375 23.9751 41.2375 26.8626C43.375 28.3001 45.3 30.0251 46.925 31.9876C47.75 32.9751 48.5 34.0126 49.1625 35.1126C49.225 35.2001 49.275 35.2751 49.325 35.3626C49.725 36.0251 50.1 36.7126 50.4375 37.4126C50.75 38.0376 51.025 38.6626 51.275 39.3126C51.675 40.3126 52 41.3376 52.275 42.3876L52.275 42.3876Z" id="Shape" fill="#F50057" fill-rule="evenodd" stroke="none" />
      <path d="M50.35 46.9878C50.175 47.2503 49.9875 47.5003 49.8 47.7378C49.25 48.4253 48.65 49.0503 47.975 49.6003C47.3875 50.0878 46.7625 50.5253 46.1 50.9003C45.85 50.8378 45.6 50.7628 45.3375 50.6628C44.5125 50.3753 43.65 49.9003 42.85 49.4003C41.65 48.6378 40.6125 47.8128 40.15 47.4378C39.975 47.2878 39.8875 47.2128 39.8875 47.2128L37.7625 47.0253L37.5 47.0003L34.75 46.7628L31.9 46.5128L27.6875 46.1378L21.0125 45.5503L20.9875 45.5378L18.6375 44.4003L16.2625 43.2503L14.35 42.3253L13.9375 42.1253L13.425 41.8753L11.65 41.0128L9.2875 39.8753L8.55 39.5128L7.5 39.1878L7.5 33.6003C8.0875 32.9003 8.7125 32.2378 9.375 31.6003C9.8 31.2003 10.25 30.8003 10.7125 30.4253C10.7875 30.3628 10.8625 30.3003 10.9375 30.2503C10.9875 30.1878 11.05 30.1503 11.1 30.1253C11.8375 29.5253 12.6125 28.9878 13.4125 28.5003C14.3375 27.9128 15.3125 27.3878 16.325 26.9503C17.4125 26.4628 18.55 26.0503 19.725 25.7378C21.7625 25.1628 23.925 24.8628 26.15 24.8628C31.25 24.8628 35.9625 26.4128 39.85 29.0753C42.3375 30.7753 44.4875 32.9253 46.1875 35.4128C46.75 36.2128 47.25 37.0628 47.7125 37.9378C47.875 38.2628 48.0375 38.5878 48.175 38.9128C48.325 39.2253 48.4625 39.5378 48.6 39.8503C48.8625 40.5003 49.1 41.1503 49.3125 41.8253C49.7125 43.0753 50.0125 44.3503 50.2 45.6753C50.2625 46.1128 50.3125 46.5503 50.35 46.9878L50.35 46.9878Z" id="Shape" fill="#FF1744" fill-rule="evenodd" stroke="none" />
      <path d="M47.9875 49.2748C47.9875 49.3748 47.9875 49.4873 47.975 49.5998C47.3875 50.0873 46.7625 50.5248 46.1 50.8998C45.825 51.0498 45.55 51.1998 45.2625 51.3248C44.975 51.4623 44.6875 51.5873 44.3875 51.6998C43.9625 51.4748 43.3875 51.1998 42.775 50.9373C41.9125 50.5498 40.975 50.1998 40.25 50.0873C40.075 50.0498 39.9125 50.0373 39.7625 50.0373L37.7125 49.7748L37.6875 49.7748L35.1375 49.4373L32.5625 49.0998L31.3625 48.9498L21.9125 47.7248C21.3 47.7248 20.65 47.6873 19.975 47.5998C19.15 47.5248 18.2875 47.3998 17.425 47.2248C16.575 47.0748 15.7125 46.8748 14.8875 46.6623C14.025 46.4623 13.175 46.2248 12.3875 45.9998C11.475 45.7248 10.625 45.4623 9.9125 45.2248C9.325 45.0373 8.825 44.8623 8.4375 44.7248C8.2125 44.1873 8.025 43.6248 7.8875 43.0498C7.625 42.0748 7.5 41.0498 7.5 39.9998L7.5 37.9123C7.9 37.2498 8.3375 36.5998 8.825 35.9873C9.7125 34.8123 10.725 33.7373 11.825 32.7873C11.8625 32.7373 11.9125 32.6998 11.95 32.6748L11.9625 32.6623C12.35 32.3123 12.75 31.9998 13.175 31.6998C13.225 31.6498 13.275 31.6123 13.325 31.5748C13.525 31.4248 13.7375 31.2748 13.9625 31.1373C15.75 29.9248 17.725 28.9748 19.8375 28.3373C21.8375 27.7373 23.95 27.4248 26.15 27.4248C30.5125 27.4248 34.5875 28.7123 37.9875 30.9123C40.5 32.5248 42.6625 34.6498 44.3125 37.1373C44.5125 37.4248 44.7 37.7123 44.8875 38.0123C45.75 39.4748 46.4625 41.0498 46.9875 42.6998C47.05 42.8873 47.1 43.0748 47.15 43.2748C47.25 43.6123 47.3375 43.9623 47.4125 44.3123C47.4375 44.3998 47.4625 44.4873 47.4875 44.5873C47.6625 45.3748 47.7875 46.1998 47.875 47.0248C47.875 47.0373 47.875 47.0373 47.875 47.0373C47.95 47.7748 47.9875 48.5248 47.9875 49.2748L47.9875 49.2748Z" id="Shape" fill="#FF5722" fill-rule="evenodd" stroke="none" />
      <path d="M45.4125 49.275C45.4125 49.7125 45.3875 50.1875 45.3375 50.6625C45.3125 50.8875 45.2875 51.1125 45.2625 51.325C44.975 51.4625 44.6875 51.5875 44.3875 51.7C43.825 51.9125 43.25 52.0875 42.6624 52.2125C42.2625 52.3 41.8499 52.375 41.4375 52.4125L41.425 52.4125C41.0375 52.175 40.5875 51.8875 40.125 51.5625C39.2875 50.975 38.4125 50.3125 37.7125 49.775C37.7 49.7625 37.7 49.7625 37.6875 49.75C36.95 49.1875 36.425 48.7625 36.425 48.7625L35.1 48.8125L32.5499 48.9L31.3624 48.95L26.5875 49.125L22.55 49.275C22.2875 49.2875 21.975 49.2875 21.5875 49.275L21.575 49.275C21.0499 49.2625 20.4249 49.225 19.7374 49.1625C18.9375 49.1 18.0625 49.025 17.1749 48.9375C16.3125 48.8375 15.4375 48.7375 14.6 48.6375C13.675 48.5375 12.8 48.425 12.05 48.325C11.4625 48.25 10.95 48.1875 10.5375 48.1375C10.1875 47.7375 9.87495 47.325 9.57495 46.875C9.12495 46.2 8.73745 45.4875 8.43745 44.725C8.21245 44.1875 8.02495 43.625 7.88745 43.05C8.24995 41.9375 8.72495 40.8875 9.28745 39.875C9.73745 39.05 10.2625 38.2625 10.8375 37.5125C11.4 36.775 12.0125 36.0875 12.675 35.4625L12.675 35.45C12.8625 35.2625 13.05 35.0875 13.2375 34.925C13.5875 34.6 13.95 34.3 14.325 34.0125L14.3375 34.0125C14.35 33.9875 14.3625 33.9875 14.375 33.975C14.675 33.7375 14.9875 33.525 15.3 33.3125C17.15 32.05 19.2374 31.1125 21.4874 30.5625C22.9749 30.2 24.5374 30 26.1499 30C29.3249 30 32.325 30.7625 34.9624 32.1375L34.9749 32.1375C37.2374 33.3 39.2374 34.9 40.8499 36.825C41.7374 37.85 42.4999 38.975 43.1249 40.1625C43.5624 40.9625 43.9374 41.8 44.2499 42.65C44.2749 42.725 44.2999 42.7875 44.3249 42.85C44.5374 43.475 44.7249 44.125 44.8874 44.775C44.9999 45.2375 45.0874 45.7125 45.1625 46.1875C45.1875 46.3375 45.2125 46.475 45.2249 46.625C45.35 47.4875 45.4125 48.375 45.4125 49.275L45.4125 49.275Z" id="Shape" fill="#FF6F00" fill-rule="evenodd" stroke="none" />
      <path d="M42.8501 49.2752L42.8501 49.4002C42.8501 49.8252 42.8126 50.3627 42.7751 50.9377C42.7376 51.3627 42.7001 51.8002 42.6626 52.2127C42.2626 52.3002 41.8501 52.3752 41.4376 52.4127L41.4251 52.4127C40.9501 52.4752 40.4876 52.5002 40.0001 52.5002L37.8126 52.5002L37.3376 52.3627L34.8751 51.6127L32.3751 50.8627L26.5876 49.1252L24.0876 48.3752C24.0876 48.3752 23.0501 48.7877 21.5876 49.2752L21.5751 49.2752C21.0126 49.4627 20.4001 49.6627 19.7501 49.8627C18.9376 50.1002 18.0751 50.3377 17.2251 50.5252C16.3501 50.7252 15.4876 50.8752 14.7126 50.9377C14.4751 50.9627 14.2376 50.9752 14.0251 50.9752C13.3251 50.5877 12.6501 50.1252 12.0376 49.6127C11.5001 49.1627 11.0001 48.6752 10.5376 48.1377C10.1876 47.7377 9.87507 47.3252 9.57507 46.8752C9.66257 46.3127 9.76257 45.7627 9.91257 45.2252C10.2876 43.7377 10.8751 42.3127 11.6501 41.0127C12.0751 40.2752 12.5501 39.5627 13.1001 38.9002C13.1126 38.8627 13.1501 38.8252 13.1876 38.8002C13.1751 38.7877 13.1876 38.7877 13.1876 38.7877C13.3501 38.5752 13.5251 38.3752 13.7001 38.1877C13.7001 38.1752 13.7001 38.1752 13.7001 38.1752C14.2126 37.6252 14.7376 37.1002 15.3126 36.6127C15.5126 36.4502 15.7001 36.2877 15.9126 36.1252C15.9501 36.0877 15.9876 36.0627 16.0376 36.0252C18.8501 33.8752 22.3626 32.5752 26.1501 32.5752C30.4501 32.5752 34.3626 34.1877 37.3251 36.8377C38.7501 38.1252 39.9626 39.6627 40.8751 41.3752C40.9501 41.5002 41.0251 41.6377 41.0876 41.7752C41.2001 42.0002 41.3126 42.2377 41.4126 42.4877C41.8251 43.3877 42.1501 44.3377 42.3751 45.3127C42.4001 45.4127 42.4251 45.5127 42.4501 45.6127C42.5501 46.0752 42.6376 46.5502 42.7001 47.0252C42.8001 47.7627 42.8501 48.5127 42.8501 49.2752L42.8501 49.2752Z" id="Shape" fill="#FF9800" fill-rule="evenodd" stroke="none" />
      <path d="M40.2749 49.2747C40.2749 49.5247 40.2625 49.7997 40.2499 50.0872C40.2249 50.5497 40.1874 51.0497 40.1249 51.5622C40.0999 51.8747 40.0499 52.1872 40 52.4997L33.15 52.4997L31.825 52.2872L26.65 51.4622L25.9125 51.3497L24.225 51.0747C23.4875 51.0747 21.8875 51.3997 20.2 51.7122C19.3125 51.8747 18.4125 52.0497 17.6 52.1622C17.5 52.1747 17.4 52.1872 17.3125 52.1997L17.3 52.1997C16.425 52.0122 15.575 51.7247 14.775 51.3497C14.525 51.2372 14.275 51.1122 14.025 50.9747C13.325 50.5872 12.65 50.1247 12.0375 49.6122C12.025 49.4622 12.0125 49.3372 12.0125 49.2747C12.0125 48.9497 12.025 48.6372 12.05 48.3247C12.1 47.5247 12.2125 46.7497 12.3875 45.9997C12.6625 44.8622 13.0625 43.7622 13.6 42.7497C13.7 42.5372 13.8125 42.3247 13.9375 42.1247C13.9875 42.0247 14.05 41.9372 14.1 41.8372C14.325 41.4747 14.575 41.1247 14.825 40.7747C15.35 40.0872 15.9375 39.4372 16.5625 38.8497C16.575 38.8497 16.575 38.8497 16.575 38.8497C16.625 38.7997 16.675 38.7497 16.725 38.7122C16.7875 38.6622 16.8375 38.5997 16.9 38.5622C17.15 38.3372 17.4 38.1372 17.6625 37.9497C17.6625 37.9372 17.675 37.9372 17.675 37.9372C20.0375 36.1747 22.9625 35.1372 26.15 35.1372C28.625 35.1372 30.925 35.7622 32.9375 36.8622L32.95 36.8622C34.6749 37.8122 36.175 39.0997 37.3625 40.6497C37.825 41.2497 38.2375 41.8872 38.5875 42.5622L38.6 42.5622C38.6625 42.6872 38.725 42.8122 38.7875 42.9372C39.1625 43.6747 39.4625 44.4497 39.6875 45.2497L39.7 45.2497C39.7125 45.3122 39.7375 45.3747 39.75 45.4372C39.9 45.9747 40.025 46.5247 40.1125 47.0872C40.125 47.1997 40.1375 47.3247 40.15 47.4372C40.2374 48.0372 40.2749 48.6497 40.2749 49.2747L40.2749 49.2747Z" id="Shape" fill="#FFC107" fill-rule="evenodd" stroke="none" />
      <path d="M37.7125 49.1374C37.7125 49.3374 37.7125 49.5499 37.6875 49.7499L37.6875 49.7624C37.6875 49.7749 37.6875 49.7749 37.6875 49.7749C37.6625 50.6749 37.5375 51.5624 37.3375 52.3624C37.3375 52.4124 37.325 52.4499 37.3 52.4999L31.4625 52.4999L26.65 51.4624L26.0125 51.3249L25.9125 51.3499L20.575 52.4499L20.3375 52.4999L20 52.4999C19.2 52.4999 18.4125 52.4249 17.65 52.2749C17.5375 52.2499 17.425 52.2249 17.3125 52.1999L17.3 52.1999C16.425 52.0124 15.575 51.7249 14.775 51.3499C14.75 51.2124 14.725 51.0749 14.7125 50.9374C14.625 50.3999 14.5875 49.8374 14.5875 49.2749C14.5875 49.0624 14.5875 48.8499 14.6 48.6374C14.6375 47.9624 14.7375 47.2999 14.8875 46.6624C14.9875 46.1874 15.125 45.7249 15.2875 45.2874C15.425 44.8999 15.5875 44.5249 15.7625 44.1624C15.9125 43.8499 16.0875 43.5499 16.2625 43.2499C16.4375 42.9624 16.625 42.6874 16.825 42.4124C17.325 41.7249 17.9125 41.0874 18.5625 40.5249C18.9375 40.1999 19.35 39.8874 19.775 39.6124C21.6 38.4124 23.7875 37.7124 26.15 37.7124C26.6125 37.7124 27.0625 37.7374 27.5 37.7999L27.525 37.7999C28.8625 37.9499 30.1125 38.3249 31.2625 38.8874C31.275 38.8874 31.275 38.8874 31.275 38.8874C33.0875 39.7749 34.625 41.1124 35.75 42.7624C35.9375 43.0374 36.125 43.3374 36.2875 43.6374C36.425 43.8749 36.55 44.1249 36.6625 44.3749C36.8375 44.7624 37 45.1749 37.1375 45.5874L37.15 45.5874C37.2875 46.0499 37.4125 46.5124 37.5 46.9999L37.5 47.0124C37.6375 47.6999 37.7125 48.4124 37.7125 49.1374L37.7125 49.1374Z" id="Shape" fill="#FFD54F" fill-rule="evenodd" stroke="none" />
      <path d="M35.1374 49.3999L35.1374 49.4374C35.1374 50.1749 35.0499 50.8999 34.8749 51.6124C34.8124 51.9124 34.7249 52.2124 34.6124 52.4999L29.0124 52.4999L26.1499 51.7124L23.2874 52.4999L19.9999 52.4999C19.1999 52.4999 18.4124 52.4249 17.6499 52.2749C17.6249 52.2374 17.6124 52.1999 17.5999 52.1624C17.4249 51.6249 17.2874 51.0874 17.2249 50.5249C17.1749 50.1624 17.1499 49.7874 17.1499 49.3999C17.1499 49.2499 17.1499 49.0874 17.1749 48.9374C17.1874 48.3499 17.2749 47.7749 17.4249 47.2249C17.4999 46.8499 17.6124 46.4874 17.7624 46.1374C17.8124 45.9624 17.8874 45.7999 17.9749 45.6374C18.1624 45.2124 18.3874 44.7999 18.6374 44.3999C18.9124 43.9999 19.2124 43.6249 19.5499 43.2749C19.9499 42.8249 20.3999 42.4124 20.9124 42.0749C21.7874 41.4374 22.7874 40.9624 23.8749 40.6999C24.5999 40.4999 25.3624 40.3999 26.1499 40.3999C28.6499 40.3999 30.8874 41.3999 32.5124 43.0124C32.5749 43.0749 32.6499 43.1499 32.7124 43.2374L32.7249 43.2374C32.8999 43.4249 33.0624 43.6124 33.2249 43.8249C33.6874 44.4124 34.0749 45.0499 34.3749 45.7499C34.5249 46.0749 34.6499 46.4124 34.7499 46.7624C34.7624 46.8124 34.7749 46.8499 34.7874 46.8999C34.9624 47.5124 35.0749 48.1499 35.0999 48.8124C35.1249 48.9999 35.1374 49.1999 35.1374 49.3999L35.1374 49.3999Z" id="Shape" fill="#FFE082" fill-rule="evenodd" stroke="none" />
      <path d="M32.5751 49.3996C32.5751 49.9121 32.5126 50.3996 32.3751 50.8621C32.2501 51.3621 32.0626 51.8371 31.8251 52.2871C31.7876 52.3621 31.7001 52.4996 31.7001 52.4996L20.6001 52.4996C20.5876 52.4871 20.5751 52.4621 20.5751 52.4496C20.4251 52.2121 20.3001 51.9746 20.2001 51.7121C19.9501 51.1371 19.8001 50.5121 19.7501 49.8621C19.7251 49.7121 19.7251 49.5496 19.7251 49.3996C19.7251 49.3246 19.7251 49.2371 19.7376 49.1621C19.7501 48.6121 19.8251 48.0871 19.9751 47.5996C20.1001 47.1496 20.2626 46.7371 20.4751 46.3371C20.4751 46.3371 20.4876 46.3246 20.4876 46.3121C20.6376 46.0496 20.8001 45.7871 20.9876 45.5371C21.6001 44.7121 22.4126 44.0371 23.3501 43.5996C23.3626 43.5996 23.3626 43.5996 23.3626 43.5996C23.6626 43.4496 23.9751 43.3246 24.3001 43.2371C24.3001 43.2371 24.3001 43.2371 24.3126 43.2371C24.8876 43.0621 25.5126 42.9746 26.1501 42.9746C26.8876 42.9746 27.6001 43.0871 28.2501 43.3246C28.4876 43.3871 28.7126 43.4871 28.9376 43.5996C28.9376 43.5996 28.9376 43.5996 28.9501 43.5996C30.0251 44.1121 30.9376 44.9121 31.5626 45.9121C31.6876 46.0996 31.8001 46.2996 31.9001 46.5121C31.9501 46.5996 32.0001 46.6996 32.0376 46.7871C32.3251 47.4371 32.5001 48.1496 32.5501 48.8996C32.5626 48.9621 32.5626 49.0246 32.5626 49.0996C32.5751 49.1996 32.5751 49.2996 32.5751 49.3996L32.5751 49.3996Z" id="Shape" fill="#FFECB3" fill-rule="evenodd" stroke="none" />
      <g id="Group" transform="translate(13.75 13.75)">
        <path d="M23.75 0L8.75 0C3.875 0 0 3.875 0 8.75L0 23.75C0 28.625 3.875 32.5 8.75 32.5L23.75 32.5C28.625 32.5 32.5 28.625 32.5 23.75L32.5 8.75C32.5 3.875 28.625 0 23.75 0L23.75 0Z" id="Shape" fill="none" fill-rule="evenodd" stroke="#FFFFFF" stroke-width="2" stroke-linecap="round" stroke-linejoin="round" />
        <path d="M23.75 6.25C23.75 5.55964 24.3096 5 25 5C25.6904 5 26.25 5.55964 26.25 6.25C26.25 6.94036 25.6904 7.5 25 7.5C24.3096 7.5 23.75 6.94036 23.75 6.25Z" id="Circle" fill="#FFFFFF" fill-rule="evenodd" stroke="none" />
      </g>
      <g id="Group" transform="translate(22.5 22.5)">
        <path d="M0 7.5C0 3.35786 3.35786 0 7.5 0C11.6421 0 15 3.35786 15 7.5C15 11.6421 11.6421 15 7.5 15C3.35786 15 0 11.6421 0 7.5Z" id="Circle" fill="none" fill-rule="evenodd" stroke="#FFFFFF" stroke-width="2" stroke-linecap="round" stroke-linejoin="round" />
      </g>
    </g>
  </g>
</svg>