<?xml version="1.0" encoding="utf-8"?>
<svg width="60px" height="60px" viewBox="0 0 60 60" version="1.1" xmlns:xlink="http://www.w3.org/1999/xlink" xmlns="http://www.w3.org/2000/svg">
  <defs>
    <path d="M0 0L60 0L60 60L0 60L0 0Z" id="path_1" />
    <clipPath id="mask_1">
      <use xlink:href="#path_1" />
    </clipPath>
  </defs>
  <g id="Twitter-icon">
    <path d="M0 0L60 0L60 60L0 60L0 0Z" id="Background" fill="none" fill-rule="evenodd" stroke="none" />
    <g clip-path="url(#mask_1)">
      <path d="M52.5 15.5363C50.8463 16.2687 49.0675 16.7575 47.1913 16.9887C49.0988 15.8562 50.5663 14.05 51.255 11.9162C49.47 12.9625 47.4925 13.7312 45.3888 14.1362C43.7088 12.355 41.3125 11.25 38.6575 11.25C33.5575 11.25 29.4238 15.3475 29.4238 20.4C29.4238 21.115 29.5075 21.8112 29.665 22.4875C21.9925 22.1025 15.1875 18.455 10.635 12.92C9.83503 14.2725 9.38503 15.8563 9.38503 17.5275C9.38503 20.7038 11.0113 23.5 13.4913 25.1475C11.9775 25.1012 10.5525 24.68 9.30503 24.005C9.30503 24.0325 9.30503 24.0737 9.30503 24.1125C9.30503 28.5513 12.4888 32.2475 16.7088 33.0888C15.9375 33.3 15.1225 33.4175 14.2825 33.4175C13.6863 33.4175 13.105 33.35 12.5425 33.2488C13.7175 36.8763 17.1263 39.5275 21.165 39.6063C18.005 42.0563 14.025 43.5238 9.69753 43.5238C8.95003 43.5238 8.21878 43.4813 7.49628 43.3937C11.585 45.9825 16.44 47.5 21.6513 47.5C38.6325 47.5 47.9225 33.555 47.9225 21.4575C47.9225 21.0613 47.91 20.6663 47.8913 20.2763C49.7038 18.9963 51.2663 17.3813 52.5 15.5363" id="Shape" fill="#03A9F4" fill-rule="evenodd" stroke="none" />
    </g>
  </g>
</svg>